<?xml version="1.0" encoding="UTF-8" standalone="no"?>
<svg
   width="180"
   height="24"
   viewBox="0 0 180 24"
   fill="none"
   version="1.1"
   id="svg20"
   sodipodi:docname="buymeacoffe-logo.svg"
   inkscape:version="1.3.2 (091e20e, 2023-11-25, custom)"
   inkscape:export-filename="buymeacoffe-logo.png"
   inkscape:export-xdpi="96"
   inkscape:export-ydpi="96"
   xmlns:inkscape="http://www.inkscape.org/namespaces/inkscape"
   xmlns:sodipodi="http://sodipodi.sourceforge.net/DTD/sodipodi-0.dtd"
   xmlns="http://www.w3.org/2000/svg"
   xmlns:svg="http://www.w3.org/2000/svg">
  <sodipodi:namedview
     id="namedview20"
     pagecolor="#ffffff"
     bordercolor="#000000"
     borderopacity="0.25"
     inkscape:showpageshadow="2"
     inkscape:pageopacity="0.0"
     inkscape:pagecheckerboard="0"
     inkscape:deskcolor="#d1d1d1"
     inkscape:zoom="2.5692308"
     inkscape:cx="97.305389"
     inkscape:cy="20.04491"
     inkscape:window-width="1366"
     inkscape:window-height="697"
     inkscape:window-x="-8"
     inkscape:window-y="-8"
     inkscape:window-maximized="1"
     inkscape:current-layer="svg20" />
  <rect
     style="fill:#ffdd00;fill-opacity:1;stroke-width:24;stroke-linecap:round;stroke-linejoin:round"
     id="rect23"
     width="180"
     height="24"
     x="0"
     y="0"
     rx="6"
     inkscape:label="bg"
     sodipodi:insensitive="true" />
  <g
     clip-path="url(#clip0_2397_300)"
     id="g19"
     inkscape:label="bmac"
     transform="matrix(0.5,0,0,0.5,41.5245,2)">
    <g
       id="g23"
       inkscape:label="coup">
      <path
         d="M 24.7394,9.30505 24.7119,9.2889 24.6484,9.26953 c 0.0256,0.02157 0.0576,0.03406 0.091,0.03552 z"
         fill="#0d0c22"
         id="path1" />
      <path
         d="M 24.7538,9.29959 C 24.7499,9.2991 24.7461,9.29818 24.7424,9.29688 c -3e-4,0.00252 -3e-4,0.00507 0,0.00761 0.0041,-5.5e-4 0.0081,-0.00224 0.0114,-0.0049 z"
         fill="#0d0c22"
         id="path2" />
      <path
         d="m 25.1172,12.1621 0.0463,-0.0264 0.0172,-0.0096 0.0156,-0.0167 c -0.0293,0.0126 -0.0562,0.0305 -0.0791,0.0527 z"
         fill="#0d0c22"
         id="path3" />
      <path
         d="M 24.8259,9.36442 24.7807,9.32137 24.75,9.30469 c 0.0165,0.02908 0.0437,0.05053 0.0759,0.05973 z"
         fill="#0d0c22"
         id="path4" />
      <path
         d="m 13.4514,37.0977 c -0.0361,0.0156 -0.0678,0.04 -0.092,0.071 l 0.0285,-0.0183 c 0.0194,-0.0178 0.0468,-0.0388 0.0635,-0.0527 z"
         fill="#0d0c22"
         id="path5" />
      <path
         d="m 20.0549,35.8027 c 0,-0.0409 -0.0199,-0.0334 -0.0151,0.1119 0,-0.0118 0.0049,-0.0236 0.007,-0.0349 0.0027,-0.0259 0.0049,-0.0512 0.0081,-0.077 z"
         fill="#0d0c22"
         id="path6" />
      <path
         d="m 19.3734,37.0977 c -0.0362,0.0156 -0.0679,0.04 -0.0922,0.071 l 0.0286,-0.0183 c 0.0193,-0.0178 0.0469,-0.0388 0.0636,-0.0527 z"
         fill="#0d0c22"
         id="path7" />
      <path
         d="M 8.79999,37.4046 C 8.77258,37.3807 8.73902,37.3651 8.70312,37.3594 c 0.02907,0.014 0.05812,0.028 0.07749,0.0387 z"
         fill="#0d0c22"
         id="path8" />
      <path
         d="m 7.74915,36.4018 c -0.00429,-0.0424 -0.0173,-0.0833 -0.03821,-0.1206 0.01481,0.0387 0.02721,0.0783 0.03713,0.1185 z"
         fill="#0d0c22"
         id="path9" />
      <path
         d="M 14.7801,18.4828 C 13.3434,19.0979 11.7129,19.7953 9.59965,19.7953 8.71562,19.7935 7.8359,19.6723 6.98438,19.4348 l 1.46153,15.0055 c 0.05174,0.6272 0.33745,1.212 0.80042,1.6383 0.46296,0.4262 1.06927,0.6628 1.69867,0.6627 0,0 2.0723,0.1076 2.7637,0.1076 0.7443,0 2.9759,-0.1076 2.9759,-0.1076 0.6292,0 1.2354,-0.2367 1.6982,-0.6629 0.4629,-0.4263 0.7485,-1.011 0.8003,-1.6381 l 1.5654,-16.5817 c -0.6996,-0.2389 -1.4056,-0.3977 -2.2015,-0.3977 -1.3765,-5e-4 -2.4856,0.4736 -3.7669,1.0219 z"
         fill="#ffdd00"
         id="path10"
         inkscape:label="liq"
         style="fill:#f9f9f9" />
      <path
         d="m 2.46094,12.0781 0.02475,0.0232 0.01615,0.0097 C 2.4894,12.0986 2.47569,12.0876 2.46094,12.0781 Z"
         fill="#0d0c22"
         id="path11" />
      <path
         d="M 27.508,10.6911 27.2879,9.58098 C 27.0904,8.58492 26.6421,7.64375 25.6197,7.28374 25.292,7.16858 24.9201,7.11908 24.6688,6.88069 24.4175,6.6423 24.3433,6.27207 24.2852,5.92875 24.1775,5.29861 24.0764,4.66793 23.966,4.03887 23.8708,3.49806 23.7955,2.89052 23.5474,2.39437 23.2245,1.72817 22.5546,1.33857 21.8884,1.08081 21.547,0.953382 21.1986,0.845582 20.8449,0.757941 19.1805,0.318833 17.4306,0.157397 15.7183,0.0653782 13.663,-0.0480303 11.6023,-0.0138619 9.55192,0.167621 8.0258,0.306456 6.41843,0.474351 4.96819,1.00225 4.43814,1.19543 3.89195,1.42736 3.4889,1.83687 2.99436,2.34002 2.83293,3.11814 3.19401,3.74559 3.45069,4.19116 3.88549,4.50596 4.34666,4.71421 4.94736,4.98254 5.5747,5.18673 6.21825,5.32337 8.0102,5.71942 9.86618,5.87494 11.6969,5.94113 13.7259,6.02302 15.7583,5.95665 17.7776,5.74256 18.277,5.68767 18.7755,5.62184 19.2731,5.54507 19.8591,5.4552 20.2352,4.68892 20.0625,4.1551 19.8559,3.51689 19.3005,3.26935 18.6725,3.36568 18.58,3.38021 18.488,3.39366 18.3954,3.40711 L 18.3287,3.4168 c -0.2128,0.02691 -0.4255,0.05202 -0.6382,0.07534 -0.4395,0.04735 -0.88,0.0861 -1.3217,0.11623 -0.989,0.06888 -1.9808,0.10063 -2.972,0.10224 -0.974,0 -1.9485,-0.02744 -2.9204,-0.09148 C 10.033,3.59007 9.59066,3.55312 9.1494,3.50828 8.94868,3.48729 8.7485,3.46523 8.54832,3.44048 L 8.35782,3.41626 8.31639,3.41034 8.1189,3.38182 C 7.71531,3.32101 7.31172,3.25106 6.91243,3.16657 6.87214,3.15763 6.8361,3.13522 6.81027,3.10303 6.78444,3.07084 6.77036,3.0308 6.77036,2.98953 6.77036,2.94826 6.78444,2.90822 6.81027,2.87603 6.8361,2.84384 6.87214,2.82143 6.91243,2.81249 H 6.91996 C 7.26598,2.73877 7.61468,2.67581 7.96446,2.62092 8.08105,2.60262 8.198,2.58468 8.31531,2.56711 H 8.31854 C 8.53756,2.55258 8.75765,2.51329 8.97559,2.48746 10.8717,2.29023 12.7792,2.22299 14.6845,2.28621 c 0.9251,0.0269 1.8495,0.08125 2.7703,0.17489 0.198,0.02044 0.395,0.04197 0.5919,0.06619 0.0753,0.00914 0.1512,0.0199 0.2271,0.02905 l 0.1528,0.02207 c 0.4456,0.06636 0.8888,0.1469 1.3297,0.24161 0.6533,0.14207 1.4922,0.18835 1.7828,0.90405 0.0926,0.22708 0.1345,0.47946 0.1857,0.71785 l 0.0651,0.30404 c 0.0017,0.00545 0.0029,0.01103 0.0037,0.01668 0.154,0.7175 0.308,1.43499 0.4623,2.15249 0.0113,0.053 0.0116,0.10777 8e-4,0.16088 C 22.2459,7.12912 22.2243,7.17943 22.1932,7.22382 22.1621,7.2682 22.1221,7.3057 22.0759,7.33397 22.0297,7.36224 21.9781,7.38068 21.9244,7.38814 H 21.9201 L 21.8259,7.40105 21.7328,7.41343 C 21.438,7.45182 21.1427,7.48769 20.8471,7.52105 20.2648,7.58742 19.6817,7.64482 19.0977,7.69325 17.9371,7.78976 16.7742,7.85308 15.609,7.88321 15.0153,7.899 14.4217,7.90635 13.8284,7.90527 11.4666,7.90341 9.10678,7.76614 6.76068,7.49415 6.50668,7.46401 6.25269,7.43173 5.9987,7.3989 6.19565,7.42419 5.85556,7.37953 5.78668,7.36984 5.62524,7.34724 5.46381,7.32374 5.30237,7.29935 4.76048,7.21809 4.22182,7.118 3.68101,7.03029 3.02719,6.92266 2.40189,6.97648 1.8105,7.29935 1.32505,7.56499 0.932149,7.97235 0.684209,8.46707 0.429139,8.99443 0.353264,9.56861 0.239182,10.1353 c -0.114081,0.5666 -0.2916622,1.1763 -0.224397,1.758 0.144755,1.2554 1.022435,2.2757 2.284865,2.5039 1.18764,0.2152 2.38173,0.3896 3.57905,0.5381 4.7033,0.576 9.455,0.6449 14.173,0.2056 0.3843,-0.0359 0.7679,-0.075 1.1511,-0.1174 0.1197,-0.0131 0.2408,7e-4 0.3544,0.0404 0.1137,0.0397 0.217,0.1043 0.3024,0.1892 0.0855,0.0848 0.1509,0.1876 0.1914,0.301 0.0405,0.1134 0.0552,0.2344 0.0429,0.3541 l -0.1194,1.1613 c -0.2408,2.3466 -0.4815,4.6929 -0.7222,7.0392 -0.2511,2.4638 -0.5039,4.9275 -0.7582,7.3911 -0.0718,0.6938 -0.1435,1.3874 -0.2153,2.0809 -0.0688,0.6829 -0.0785,1.3873 -0.2082,2.0621 -0.2045,1.0611 -0.9229,1.7128 -1.9712,1.9512 -0.9603,0.2185 -1.9414,0.3333 -2.9263,0.3422 -1.0918,0.006 -2.1831,-0.0425 -3.275,-0.0366 C 10.7326,37.9061 9.30492,37.7985 8.40518,36.931 7.61468,36.169 7.50544,34.976 7.39782,33.9444 7.25432,32.5787 7.11207,31.2131 6.97109,29.8477 L 6.18005,22.2554 5.66829,17.3429 C 5.65968,17.2616 5.65107,17.1814 5.643,17.0996 5.58166,16.5136 5.16676,15.94 4.51295,15.9696 3.9533,15.9943 3.31724,16.47 3.38289,17.0996 l 0.37938,3.642 0.78458,7.5337 c 0.2235,2.14 0.44646,4.2803 0.66888,6.4209 0.04305,0.4101 0.08341,0.8212 0.12861,1.2312 0.24592,2.2408 1.95715,3.4483 4.07627,3.7884 1.23769,0.1991 2.50549,0.24 3.76149,0.2604 1.61,0.0259 3.2362,0.0878 4.8199,-0.2039 2.3468,-0.4305 4.1075,-1.9975 4.3588,-4.4282 0.0718,-0.7017 0.1435,-1.4036 0.2153,-2.1057 0.2385,-2.3218 0.4768,-4.6438 0.7146,-6.966 l 0.7781,-7.5875 0.3568,-3.4773 c 0.0178,-0.1724 0.0906,-0.3346 0.2077,-0.4624 0.117,-0.1278 0.2722,-0.2146 0.4424,-0.2474 0.671,-0.1308 1.3124,-0.3541 1.7897,-0.8648 0.7599,-0.8131 0.9111,-1.8732 0.6426,-2.9419 z M 2.26521,11.4413 C 2.27543,11.4364 2.2566,11.5241 2.24853,11.565 2.24691,11.5032 2.25014,11.4483 2.26521,11.4413 Z M 2.33032,11.945 C 2.33571,11.9412 2.35185,11.9627 2.36853,11.9885 2.34324,11.9649 2.32763,11.9471 2.33032,11.945 Z m 0.06404,0.0844 c 0.03552,0.0641 0.02314,0.0393 0,0 z m 0.12861,0.1044 H 2.5262 c 0,0.0038 0.00592,0.0076 0.00807,0.0113 C 2.5307,12.141 2.52728,12.1372 2.52297,12.1338 Z m 22.52143,-0.156 c -0.241,0.2292 -0.6043,0.3358 -0.9632,0.389 -4.0251,0.5974 -8.109,0.8998 -12.1782,0.7663 C 8.99065,13.0336 6.10901,12.7102 3.22576,12.3028 2.94324,12.263 2.63705,12.2113 2.44279,12.0031 2.07687,11.6102 2.2566,10.8192 2.35185,10.3446 2.43902,9.90978 2.60584,9.33022 3.12298,9.26834 3.93016,9.17363 4.86757,9.51426 5.66614,9.63533 6.62758,9.78206 7.59262,9.89955 8.56123,9.9878 c 4.13387,0.3767 8.33717,0.318 12.45267,-0.233 0.7501,-0.10081 1.4976,-0.21794 2.2424,-0.3514 0.6635,-0.11892 1.3991,-0.34224 1.8,0.34494 0.275,0.46816 0.3116,1.09456 0.269,1.62356 -0.0131,0.2304 -0.1132,0.4472 -0.2809,0.6059 z"
         fill="#0d0c22"
         id="path12" />
    </g>
    <g
       id="g22"
       inkscape:label="phrase">
      <path
         fill-rule="evenodd"
         clip-rule="evenodd"
         d="m 49.4553,23.1575 c -0.235,0.4486 -0.5583,0.8392 -0.9695,1.1707 -0.4112,0.3318 -0.891,0.6019 -1.4394,0.8098 -0.5483,0.2085 -1.1002,0.3484 -1.655,0.4197 -0.5551,0.0715 -1.0938,0.0653 -1.6158,-0.0196 -0.5223,-0.0844 -0.9665,-0.2567 -1.3318,-0.5172 l 0.4115,-4.2735 c 0.3784,-0.13 0.8547,-0.2634 1.4294,-0.4001 0.5745,-0.1364 1.1653,-0.2342 1.7726,-0.2926 0.6072,-0.0587 1.1814,-0.0518 1.7236,0.0195 0.5414,0.0716 0.9693,0.2439 1.2826,0.5172 0.1697,0.156 0.3135,0.3251 0.4311,0.5073 0.1172,0.1822 0.189,0.3708 0.2154,0.5659 0.0651,0.5464 -0.0196,1.044 -0.2547,1.4929 z m -5.9736,-9.1034 c 0.2743,-0.1691 0.604,-0.3189 0.9891,-0.4491 0.3852,-0.1298 0.7802,-0.2211 1.185,-0.2731 0.4045,-0.0517 0.7995,-0.0587 1.1849,-0.0196 0.3849,0.0392 0.7248,0.1464 1.0185,0.3219 0.2936,0.1758 0.5123,0.4295 0.6559,0.761 0.1436,0.332 0.1829,0.7516 0.1175,1.2589 -0.0521,0.4033 -0.2124,0.7449 -0.4798,1.0245 -0.2676,0.28 -0.5943,0.5139 -0.9792,0.7026 -0.3851,0.1889 -0.7931,0.3384 -1.2239,0.4486 -0.4311,0.1109 -0.8458,0.1923 -1.2438,0.2441 -0.3983,0.0522 -0.7442,0.0849 -1.0379,0.0975 -0.2939,0.0131 -0.4867,0.0196 -0.5779,0.0196 z m 8.0888,6.342 c -0.209,-0.4551 -0.4897,-0.8551 -0.8421,-1.2003 -0.3525,-0.3446 -0.7707,-0.5949 -1.2535,-0.7511 0.2087,-0.1691 0.4145,-0.4357 0.617,-0.8001 0.2022,-0.364 0.3752,-0.7611 0.5188,-1.1903 0.1436,-0.4296 0.2417,-0.8618 0.2939,-1.2978 0.0519,-0.4357 0.0323,-0.8098 -0.0586,-1.1222 -0.2224,-0.7804 -0.5715,-1.3919 -1.0481,-1.8343 -0.4768,-0.4422 -1.0313,-0.7479 -1.6647,-0.9172 -0.6333,-0.1686 -1.3318,-0.2048 -2.0955,-0.1072 -0.7638,0.0975 -1.5443,0.2894 -2.3403,0.5756 0,-0.0649 0.0064,-0.1332 0.0196,-0.2048 0.0127,-0.0713 0.0194,-0.1463 0.0194,-0.2245 0,-0.1951 -0.0979,-0.364 -0.2937,-0.5073 -0.1958,-0.1431 -0.4212,-0.2275 -0.6756,-0.2538 -0.2547,-0.0257 -0.5029,0.0293 -0.7444,0.1659 -0.2418,0.1367 -0.4082,0.3875 -0.4994,0.7511 -0.1046,1.1711 -0.209,2.3876 -0.3133,3.6492 -0.1046,1.2621 -0.2155,2.5371 -0.333,3.8252 -0.1175,1.2879 -0.235,2.5661 -0.3526,3.8344 -0.1175,1.2686 -0.235,2.4881 -0.3525,3.6588 0.0392,0.3513 0.1371,0.6247 0.2939,0.8197 0.1565,0.1954 0.3394,0.3125 0.5484,0.3513 0.2087,0.0392 0.4276,0.003 0.6559,-0.1074 0.2284,-0.1102 0.4276,-0.3025 0.5976,-0.5756 0.522,0.2862 1.1096,0.4716 1.7626,0.5563 0.6527,0.0844 1.3151,0.0844 1.988,0 0.6721,-0.0847 1.3347,-0.2439 1.9877,-0.4783 0.6527,-0.234 1.2468,-0.5268 1.7822,-0.8779 0.5352,-0.3513 0.9857,-0.7516 1.3515,-1.2002 0.3654,-0.4491 0.607,-0.9336 0.7245,-1.4537 0.1175,-0.5336 0.1501,-1.0668 0.0979,-1.6003 -0.0522,-0.5333 -0.1829,-1.0275 -0.3916,-1.4832 z"
         fill="#0d0c23"
         id="path13" />
      <path
         d="m 60.275391,15.853516 c -0.101583,-0.0053 -0.210044,-0.0012 -0.324219,0.01172 -0.3133,0.1302 -0.545313,0.299913 -0.695313,0.507813 -0.150298,0.208 -0.272081,0.473828 -0.363281,0.798828 -0.0524,0.1694 -0.130075,0.508027 -0.234375,1.015625 -0.1046,0.506998 -0.239044,1.089294 -0.402344,1.746094 -0.163198,0.657298 -0.354372,1.343095 -0.576172,2.058593 -0.222198,0.7155 -0.47004,1.36476 -0.74414,1.94336 -0.2743,0.578798 -0.576144,1.043231 -0.902344,1.394531 -0.3265,0.3511 -0.677941,0.494788 -1.056641,0.429688 -0.208898,-0.0391 -0.343743,-0.254432 -0.402343,-0.644532 -0.0589,-0.390398 -0.0683,-0.870761 -0.0293,-1.443359 0.0393,-0.572398 0.118728,-1.200013 0.236328,-1.882813 0.1175,-0.683098 0.237128,-1.331559 0.361328,-1.943359 0.124,-0.611198 0.23915,-1.150941 0.34375,-1.619141 0.1044,-0.468398 0.175644,-0.779648 0.214844,-0.935546 0,-0.3773 -0.08441,-0.680204 -0.253906,-0.908204 -0.1699,-0.227298 -0.375688,-0.370987 -0.617188,-0.429687 -0.2418,-0.0584 -0.489641,-0.02584 -0.744141,0.09766 -0.254598,0.1238 -0.47345,0.34903 -0.65625,0.673828 -0.0654,0.3513 -0.151559,0.756952 -0.255859,1.21875 -0.1046,0.4617 -0.204834,0.937782 -0.302734,1.425782 -0.0979,0.487898 -0.188738,0.965195 -0.273438,1.433593 -0.085,0.4684 -0.1483,0.877216 -0.1875,1.228516 -0.0261,0.2731 -0.05559,0.609261 -0.08789,1.005859 -0.0328,0.3971 -0.04883,0.815613 -0.04883,1.257813 0,0.442598 0.03206,0.882661 0.09766,1.318359 0.0651,0.436 0.183817,0.835219 0.353515,1.199219 0.1697,0.3644 0.407744,0.664139 0.714844,0.898437 0.3066,0.2342 0.693963,0.364327 1.164063,0.390625 0.482798,0.0257 0.904373,-0.0096 1.263671,-0.107421 0.359,-0.0975 0.686571,-0.250785 0.980469,-0.458985 0.2937,-0.2077 0.561035,-0.455789 0.802735,-0.742187 0.241298,-0.2859 0.479745,-0.597047 0.714843,-0.935547 0.2219,0.494698 0.50873,0.877092 0.861328,1.15039 0.3525,0.2731 0.723635,0.436582 1.115235,0.488282 0.391598,0.0517 0.790514,-0.0031 1.195312,-0.166016 0.4045,-0.1624 0.770957,-0.439678 1.097657,-0.830078 0.214898,-0.2394 0.417123,-0.5117 0.607421,-0.8125 0.0808,0.1409 0.166972,0.276844 0.263672,0.402344 0.32,0.416698 0.754335,0.703175 1.302735,0.859375 0.587398,0.1562 1.160958,0.18232 1.722656,0.07813 0.561298,-0.104 1.096369,-0.293307 1.605469,-0.566407 0.509298,-0.273298 0.982322,-0.600375 1.419922,-0.984375 0.437298,-0.383698 0.820084,-0.784473 1.146484,-1.201171 -0.0131,0.299298 -0.01953,0.583209 -0.01953,0.849609 0,0.2669 -0.0066,0.556741 -0.01953,0.869141 -0.653198,0.455498 -1.270664,1.001373 -1.851562,1.638671 -0.581198,0.6372 -1.090044,1.316865 -1.527344,2.039063 -0.437298,0.721898 -0.779644,1.453814 -1.027344,2.195312 -0.248198,0.742 -0.369981,1.433927 -0.363281,2.078125 0.0064,0.6439 0.160538,1.206202 0.460938,1.6875 0.300198,0.4815 0.78965,0.826957 1.46875,1.035157 0.705098,0.2214 1.325628,0.227532 1.861328,0.01953 0.535198,-0.2082 1.002092,-0.553858 1.40039,-1.035156 0.3983,-0.4812 0.723616,-1.063096 0.978516,-1.746094 0.2544,-0.683098 0.457322,-1.395219 0.607422,-2.136719 0.1501,-0.741498 0.243903,-1.470647 0.283203,-2.185547 0.0392,-0.715798 0.0392,-1.352811 0,-1.912109 1.122798,-0.4681 2.043421,-1.059691 2.761719,-1.775391 0.718098,-0.714998 1.313103,-1.469972 1.783203,-2.263672 0.1436,-0.195098 0.191884,-0.430025 0.146484,-0.703125 -0.046,-0.273298 -0.157784,-0.508025 -0.333984,-0.703125 -0.1764,-0.195098 -0.391786,-0.305831 -0.646484,-0.332031 -0.2544,-0.026 -0.512538,0.117488 -0.773438,0.429688 -0.1699,0.312098 -0.385286,0.612239 -0.646484,0.898437 -0.2611,0.2864 -0.531702,0.545097 -0.8125,0.779297 -0.2808,0.234 -0.548135,0.436569 -0.802735,0.605469 -0.254498,0.1693 -0.453956,0.293094 -0.597656,0.371094 -0.0521,-0.4162 -0.08169,-0.864204 -0.08789,-1.345704 -0.007,-0.481298 0.003,-0.970445 0.0293,-1.464843 0.039,-0.7026 0.121894,-1.411255 0.246094,-2.126953 0.124,-0.7155 0.302111,-1.417724 0.537109,-2.107422 0,-0.364 -0.08441,-0.659019 -0.253906,-0.886719 -0.1699,-0.2275 -0.375687,-0.371288 -0.617187,-0.429688 -0.2418,-0.0584 -0.489441,-0.02584 -0.744141,0.09766 -0.2546,0.1238 -0.47335,0.347075 -0.65625,0.671875 -0.1565,0.429498 -0.336764,0.912114 -0.539062,1.445312 -0.2027,0.5336 -0.431149,1.076008 -0.685547,1.628906 -0.2547,0.5533 -0.538263,1.089277 -0.851563,1.609375 -0.313498,0.5206 -0.655144,0.983621 -1.027344,1.386719 -0.371898,0.4032 -0.777745,0.717813 -1.214843,0.945313 -0.4378,0.2278 -0.910524,0.328734 -1.419922,0.302734 -0.2353,-0.0651 -0.405466,-0.240944 -0.509766,-0.527344 -0.1046,-0.285998 -0.166147,-0.643067 -0.185547,-1.072265 -0.0196,-0.4293 -1.02e-4,-0.902116 0.05859,-1.416016 0.0588,-0.513698 0.138428,-1.02405 0.236328,-1.53125 0.0979,-0.507498 0.204966,-0.988061 0.322266,-1.443359 0.1175,-0.4553 0.227431,-0.840144 0.332031,-1.152344 0.1567,-0.377 0.1567,-0.691813 0,-0.945313 -0.1566,-0.253798 -0.370431,-0.422912 -0.644531,-0.507812 -0.2743,-0.0845 -0.563083,-0.08116 -0.863281,0.0098 -0.3004,0.0911 -0.516085,0.29327 -0.646485,0.605468 -0.2222,0.5337 -0.424822,1.131424 -0.607422,1.794922 -0.182898,0.6634 -0.328653,1.349796 -0.439453,2.058594 -0.1113,0.709198 -0.172547,1.411424 -0.185547,2.107422 -7e-4,0.0453 2e-4,0.08771 0,0.132812 -0.284798,0.7563 -0.5549,1.328438 -0.8125,1.710938 -0.332998,0.494598 -0.709353,0.709931 -1.126953,0.644531 -0.1832,-0.078 -0.302628,-0.260375 -0.361328,-0.546875 -0.0593,-0.2859 -0.07995,-0.636036 -0.06055,-1.052734 0.0201,-0.4159 0.06849,-0.888916 0.146485,-1.416016 0.0788,-0.526798 0.177423,-1.072672 0.294921,-1.638672 0.1178,-0.566198 0.240694,-1.134333 0.371094,-1.707031 0.1305,-0.572298 0.248616,-1.113594 0.353516,-1.621094 -0.0132,-0.455298 -0.147644,-0.802069 -0.402344,-1.042969 -0.1908,-0.180298 -0.43744,-0.278942 -0.742187,-0.294921 z m 10.427734,13.144531 c 0.0654,0.0779 0.09439,0.273439 0.08789,0.585937 -0.0069,0.3121 -0.04559,0.68233 -0.117188,1.111328 -0.0718,0.4293 -0.172334,0.882324 -0.302734,1.357422 -0.1307,0.4746 -0.284738,0.906477 -0.460938,1.296875 -0.1761,0.3902 -0.372792,0.706366 -0.58789,0.947266 -0.2157,0.2406 -0.447313,0.341634 -0.695313,0.302734 -0.1958,-0.0265 -0.319194,-0.150295 -0.371094,-0.371093 -0.0525,-0.2216 -0.0525,-0.495313 0,-0.820313 0.0519,-0.3253 0.152435,-0.691864 0.302735,-1.101562 0.1501,-0.4097 0.333428,-0.817704 0.548828,-1.220704 0.2157,-0.403598 0.460275,-0.789356 0.734375,-1.160156 0.2743,-0.370698 0.560927,-0.680734 0.861329,-0.927734 z"
         style="clip-rule:evenodd;fill:#0d0c23;fill-rule:evenodd"
         id="path21" />
      <path
         fill-rule="evenodd"
         clip-rule="evenodd"
         d="m 102.022,20.9834 c 0.039,-0.2991 0.098,-0.6147 0.176,-0.9465 0.079,-0.3317 0.177,-0.6538 0.294,-0.966 0.118,-0.3122 0.255,-0.582 0.411,-0.8098 0.157,-0.2275 0.324,-0.3902 0.5,-0.488 0.176,-0.0972 0.355,-0.0876 0.539,0.0293 0.195,0.1173 0.316,0.3644 0.362,0.7414 0.045,0.3778 0,0.7809 -0.137,1.2102 -0.137,0.4295 -0.382,0.8325 -0.735,1.2098 -0.352,0.3776 -0.829,0.6244 -1.429,0.7415 -0.027,-0.1817 -0.02,-0.4226 0.019,-0.7219 z m 6.786,0.7999 c -0.215,-0.0646 -0.421,-0.0713 -0.617,-0.0193 -0.195,0.052 -0.32,0.1886 -0.372,0.41 -0.104,0.4161 -0.271,0.8422 -0.499,1.2779 -0.229,0.436 -0.509,0.8489 -0.842,1.2394 -0.333,0.3901 -0.709,0.735 -1.126,1.0341 -0.418,0.2993 -0.856,0.5139 -1.313,0.6439 -0.457,0.1433 -0.835,0.1594 -1.136,0.0488 -0.3,-0.1102 -0.538,-0.2991 -0.714,-0.5657 -0.177,-0.2667 -0.304,-0.5888 -0.382,-0.9661 -0.079,-0.3773 -0.124,-0.7674 -0.137,-1.171 0.744,0.0523 1.406,-0.0809 1.988,-0.4 0.58,-0.3184 1.073,-0.7415 1.478,-1.2683 0.405,-0.5269 0.712,-1.1188 0.921,-1.7759 0.208,-0.6568 0.326,-1.3106 0.352,-1.9612 0.013,-0.6115 -0.078,-1.1284 -0.274,-1.5513 -0.196,-0.4226 -0.46,-0.7516 -0.793,-0.9856 -0.333,-0.2342 -0.715,-0.3708 -1.146,-0.4097 -0.431,-0.0391 -0.868,0.0196 -1.312,0.1755 -0.536,0.1822 -0.989,0.4781 -1.361,0.8881 -0.372,0.4097 -0.683,0.8848 -0.93,1.4245 -0.249,0.5399 -0.445,1.122 -0.588,1.7463 -0.144,0.6247 -0.2483,1.2394 -0.3134,1.8444 -0.0589,0.543 -0.0902,1.0621 -0.1014,1.5632 -0.0278,0.0636 -0.0549,0.1248 -0.0847,0.1929 -0.2025,0.4622 -0.4378,0.9142 -0.7052,1.3564 -0.2676,0.4424 -0.5647,0.8133 -0.891,1.1123 -0.3265,0.2993 -0.6659,0.4033 -1.0184,0.3122 -0.209,-0.0517 -0.323,-0.2929 -0.3427,-0.7219 -0.0196,-0.4295 0.003,-0.9628 0.0684,-1.6003 0.0653,-0.6372 0.1403,-1.3272 0.2253,-2.0687 0.0847,-0.7415 0.1272,-1.4503 0.1272,-2.1269 0,-0.5855 -0.111,-1.148 -0.3329,-1.6882 -0.2221,-0.5394 -0.5258,-0.9885 -0.9106,-1.3462 -0.3854,-0.358 -0.8324,-0.5954 -1.3415,-0.7123 -0.5094,-0.1173 -1.0577,-0.0391 -1.6451,0.234 -0.5879,0.2733 -1.0545,0.657 -1.4004,1.1514 -0.3463,0.4947 -0.6629,1.0148 -0.9498,1.5612 -0.1049,-0.4164 -0.2579,-0.8031 -0.4604,-1.1611 -0.2025,-0.3578 -0.4503,-0.6699 -0.7442,-0.9368 -0.2939,-0.2664 -0.6239,-0.4746 -0.9889,-0.6244 -0.3657,-0.1493 -0.7511,-0.2243 -1.1559,-0.2243 -0.3915,0 -0.7538,0.075 -1.0867,0.2243 -0.333,0.1498 -0.6366,0.3414 -0.9109,0.5756 -0.2741,0.2345 -0.522,0.4976 -0.7442,0.7905 -0.2219,0.2926 -0.4181,0.5823 -0.5874,0.8682 -0.0265,-0.3382 -0.0559,-0.634 -0.0882,-0.888 -0.0328,-0.2535 -0.0916,-0.4682 -0.1764,-0.6437 -0.0849,-0.1758 -0.2054,-0.309 -0.3622,-0.4001 -0.1568,-0.0908 -0.3787,-0.1366 -0.6657,-0.1366 -0.1438,0 -0.2877,0.0292 -0.4311,0.0876 -0.1438,0.0587 -0.2713,0.1401 -0.3818,0.2441 -0.1111,0.1045 -0.1958,0.231 -0.2545,0.3805 -0.0591,0.1496 -0.075,0.3221 -0.0492,0.5172 0.0129,0.1434 0.0492,0.3154 0.1079,0.5172 0.0586,0.2018 0.114,0.4654 0.1664,0.7902 0.052,0.3253 0.0944,0.719 0.1272,1.1807 0.0326,0.462 0.0423,1.0279 0.0294,1.6978 -0.0132,0.6702 -0.0622,1.4538 -0.1469,2.3514 -0.0852,0.8977 -0.2189,1.9385 -0.4015,3.1222 -0.0261,0.2733 0.0783,0.4946 0.3136,0.6637 0.2348,0.1688 0.5024,0.2664 0.8028,0.2926 0.3001,0.026 0.5843,-0.0262 0.8519,-0.156 0.2676,-0.1304 0.4212,-0.3579 0.4602,-0.683 0.0393,-0.6115 0.1143,-1.2619 0.2254,-1.9516 0.1108,-0.6892 0.2479,-1.3723 0.4112,-2.0489 0.1632,-0.6763 0.3491,-1.3203 0.5583,-1.932 0.2087,-0.6115 0.4405,-1.1512 0.6952,-1.6196 0.2547,-0.4684 0.519,-0.8423 0.7931,-1.122 0.2743,-0.2798 0.5613,-0.4196 0.8619,-0.4196 0.3655,0 0.6493,0.1656 0.852,0.4973 0.202,0.332 0.3456,0.7583 0.4308,1.2782 0.0848,0.5207 0.1238,1.0901 0.1176,1.7078 -0.007,0.6179 -0.0328,1.2131 -0.0785,1.7854 -0.0458,0.5727 -0.0979,1.0832 -0.1568,1.532 -0.0587,0.4489 -0.1012,0.7581 -0.127,0.9269 0,0.2993 0.114,0.5365 0.3424,0.7123 0.2283,0.1755 0.483,0.2797 0.764,0.3122 0.2808,0.0326 0.5449,-0.0196 0.7931,-0.1563 0.248,-0.1366 0.3916,-0.3671 0.4309,-0.6927 0.1304,-0.9365 0.31,-1.8763 0.5384,-2.8195 0.2283,-0.9433 0.4897,-1.7887 0.7837,-2.5369 0.2936,-0.7481 0.6199,-1.3596 0.9792,-1.8345 0.359,-0.4746 0.7409,-0.7122 1.1459,-0.7122 0.2084,0 0.3687,0.1433 0.4795,0.4292 0.1108,0.2862 0.1665,0.6764 0.1665,1.1708 0,0.3644 -0.0293,0.7385 -0.088,1.1222 -0.0589,0.3838 -0.1272,0.7806 -0.2057,1.1904 -0.0783,0.4099 -0.1468,0.8293 -0.2057,1.2586 -0.0587,0.4295 -0.088,0.8781 -0.088,1.3465 0,0.3253 0.0326,0.7026 0.0979,1.1319 0.0651,0.4291 0.1891,0.8361 0.372,1.2196 0.1828,0.3839 0.434,0.709 0.7543,0.9756 0.3198,0.2667 0.7275,0.4001 1.2237,0.4001 0.7444,0 1.4036,-0.1594 1.9783,-0.4781 0.5744,-0.3186 1.0674,-0.7347 1.4786,-1.2487 0.0214,-0.027 0.0408,-0.0557 0.0616,-0.0824 0.0311,0.076 0.0591,0.1564 0.0951,0.2287 0.281,0.5724 0.662,1.0146 1.146,1.327 0.483,0.3122 1.051,0.4845 1.704,0.5172 0.652,0.0321 1.364,-0.0882 2.135,-0.3612 0.574,-0.2082 1.073,-0.4684 1.498,-0.7806 0.424,-0.3122 0.806,-0.6927 1.145,-1.1416 0.34,-0.4488 0.65,-0.966 0.931,-1.5512 0.281,-0.5858 0.564,-1.2555 0.851,-2.0103 0.053,-0.2077 0.004,-0.3932 -0.146,-0.5561 -0.15,-0.1624 -0.333,-0.2763 -0.549,-0.3416 z"
         fill="#0d0c23"
         id="path15" />
      <path
         fill-rule="evenodd"
         clip-rule="evenodd"
         d="m 119.448,19.606 c -0.065,0.3839 -0.153,0.807 -0.264,1.2685 -0.112,0.462 -0.252,0.94 -0.421,1.4344 -0.17,0.4944 -0.379,0.9401 -0.627,1.3367 -0.248,0.3971 -0.532,0.7122 -0.852,0.9464 -0.32,0.2342 -0.689,0.3318 -1.107,0.2927 -0.209,-0.0258 -0.369,-0.1689 -0.479,-0.4293 -0.111,-0.26 -0.17,-0.592 -0.177,-0.9953 -0.006,-0.403 0.029,-0.8454 0.108,-1.3269 0.078,-0.4811 0.199,-0.9529 0.363,-1.4149 0.162,-0.4615 0.362,-0.8878 0.597,-1.2782 0.235,-0.3902 0.505,-0.6927 0.813,-0.9074 0.306,-0.2146 0.643,-0.3151 1.008,-0.3025 0.366,0.0131 0.757,0.1951 1.175,0.5464 -0.026,0.1693 -0.071,0.4459 -0.137,0.8294 z m 6.962,1.4928 c -0.202,-0.104 -0.411,-0.1265 -0.626,-0.0681 -0.215,0.0585 -0.369,0.257 -0.46,0.5952 -0.053,0.3644 -0.17,0.7934 -0.353,1.2878 -0.183,0.4944 -0.408,0.9631 -0.676,1.405 -0.267,0.4424 -0.574,0.8101 -0.92,1.1027 -0.346,0.2929 -0.715,0.4263 -1.106,0.3998 -0.327,-0.0257 -0.556,-0.1916 -0.686,-0.4974 -0.131,-0.3057 -0.199,-0.6892 -0.206,-1.1514 -0.006,-0.4615 0.04,-0.9819 0.137,-1.5609 0.098,-0.5789 0.216,-1.1545 0.353,-1.7273 0.137,-0.5722 0.277,-1.122 0.421,-1.6489 0.143,-0.5268 0.261,-0.9724 0.353,-1.3366 0.104,-0.3253 0.071,-0.6016 -0.098,-0.8296 -0.17,-0.2273 -0.382,-0.3902 -0.637,-0.4877 -0.255,-0.0975 -0.513,-0.1235 -0.774,-0.078 -0.261,0.0456 -0.43,0.1854 -0.509,0.4194 -0.77,-0.6635 -1.511,-1.0212 -2.223,-1.0732 -0.711,-0.052 -1.368,0.1042 -1.968,0.4684 -0.601,0.3642 -1.133,0.891 -1.596,1.5807 -0.464,0.6897 -0.839,1.4409 -1.126,2.2539 -0.288,0.813 -0.467,1.6426 -0.539,2.4881 -0.072,0.8457 -0.016,1.6166 0.167,2.3125 0.183,0.6959 0.505,1.2654 0.969,1.7073 0.463,0.4424 1.093,0.6637 1.89,0.6637 0.353,0 0.692,-0.0715 1.018,-0.2146 0.327,-0.1434 0.627,-0.3125 0.901,-0.5076 0.274,-0.195 0.516,-0.4 0.725,-0.6147 0.209,-0.2146 0.372,-0.3934 0.49,-0.5367 0.091,0.4684 0.241,0.8655 0.45,1.1906 0.209,0.325 0.447,0.5921 0.715,0.7999 0.267,0.2079 0.548,0.3609 0.842,0.4587 0.294,0.0976 0.578,0.1463 0.852,0.1463 0.614,0 1.188,-0.2082 1.724,-0.6246 0.535,-0.4159 1.015,-0.9269 1.439,-1.5317 0.424,-0.6051 0.774,-1.2423 1.048,-1.9125 0.274,-0.6699 0.457,-1.2651 0.548,-1.7857 0.092,-0.1951 0.075,-0.3998 -0.049,-0.6145 -0.124,-0.2146 -0.287,-0.3738 -0.49,-0.4783 z"
         fill="#0d0c23"
         id="path16" />
      <path
         fill-rule="evenodd"
         clip-rule="evenodd"
         d="m 161.672,31.8755 c -0.111,0.4422 -0.284,0.8165 -0.519,1.122 -0.235,0.3057 -0.529,0.4652 -0.882,0.4783 -0.222,0.0129 -0.391,-0.1042 -0.509,-0.3513 -0.117,-0.2473 -0.199,-0.5659 -0.244,-0.9561 -0.046,-0.3904 -0.066,-0.8264 -0.059,-1.3077 0.006,-0.4813 0.026,-0.9561 0.059,-1.4245 0.032,-0.4682 0.071,-0.9044 0.117,-1.3074 0.046,-0.4036 0.081,-0.7152 0.108,-0.9366 0.443,0.052 0.813,0.2436 1.106,0.5756 0.294,0.3318 0.519,0.7252 0.676,1.1807 0.157,0.4553 0.248,0.9464 0.274,1.4733 0.026,0.5268 -0.016,1.0113 -0.127,1.4537 z m -7.09,0 c -0.111,0.4422 -0.284,0.8165 -0.519,1.122 -0.235,0.3057 -0.529,0.4652 -0.881,0.4783 -0.222,0.0129 -0.392,-0.1042 -0.509,-0.3513 -0.118,-0.2473 -0.2,-0.5659 -0.245,-0.9561 -0.046,-0.3904 -0.066,-0.8264 -0.059,-1.3077 0.006,-0.4813 0.026,-0.9561 0.059,-1.4245 0.032,-0.4682 0.071,-0.9044 0.117,-1.3074 0.046,-0.4036 0.082,-0.7152 0.108,-0.9366 0.444,0.052 0.813,0.2436 1.106,0.5756 0.294,0.3318 0.519,0.7252 0.676,1.1807 0.157,0.4553 0.248,0.9464 0.274,1.4733 0.026,0.5268 -0.016,1.0113 -0.127,1.4537 z m -7.276,-11.084 c -0.013,0.312 -0.042,0.5885 -0.088,0.8292 -0.046,0.2411 -0.108,0.3936 -0.186,0.4587 -0.144,-0.0782 -0.32,-0.2795 -0.529,-0.6051 -0.209,-0.325 -0.372,-0.6929 -0.49,-1.1026 -0.117,-0.4098 -0.153,-0.8128 -0.107,-1.2099 0.045,-0.3966 0.251,-0.7053 0.617,-0.9269 0.143,-0.078 0.267,-0.0488 0.372,0.0879 0.104,0.1366 0.189,0.3349 0.255,0.5951 0.065,0.2605 0.11,0.5595 0.137,0.8977 0.026,0.3385 0.032,0.6635 0.019,0.9759 z m -1.733,3.8931 c -0.203,0.2144 -0.428,0.3998 -0.676,0.556 -0.248,0.1562 -0.503,0.2733 -0.763,0.3513 -0.262,0.0783 -0.497,0.0976 -0.706,0.0585 -0.587,-0.1169 -1.038,-0.3709 -1.351,-0.7611 -0.313,-0.3901 -0.513,-0.8486 -0.597,-1.3755 -0.085,-0.527 -0.076,-1.0898 0.029,-1.6882 0.104,-0.5983 0.28,-1.1544 0.529,-1.6683 0.248,-0.514 0.548,-0.9564 0.901,-1.327 0.352,-0.3709 0.737,-0.6016 1.155,-0.693 -0.157,0.6635 -0.209,1.35 -0.157,2.0588 0.053,0.7091 0.223,1.3758 0.51,2.0002 0.182,0.3778 0.401,0.7221 0.656,1.0343 0.254,0.3124 0.565,0.5791 0.93,0.8002 -0.104,0.2213 -0.258,0.4391 -0.46,0.6538 z m 21.671,-3.698 c 0.039,-0.299 0.097,-0.6149 0.176,-0.9467 0.078,-0.3315 0.176,-0.6536 0.294,-0.9657 0.117,-0.3125 0.254,-0.5823 0.411,-0.8099 0.157,-0.2275 0.323,-0.3904 0.499,-0.4879 0.177,-0.0976 0.356,-0.0879 0.539,0.0292 0.196,0.1173 0.317,0.3644 0.362,0.7415 0.046,0.3775 0,0.7806 -0.137,1.2101 -0.137,0.4293 -0.382,0.8326 -0.734,1.2096 -0.352,0.3778 -0.829,0.6246 -1.43,0.7417 -0.026,-0.1819 -0.019,-0.4226 0.02,-0.7219 z m 7.893,0 c 0.039,-0.299 0.097,-0.6149 0.176,-0.9467 0.078,-0.3315 0.176,-0.6536 0.294,-0.9657 0.117,-0.3125 0.254,-0.5823 0.411,-0.8099 0.157,-0.2275 0.323,-0.3904 0.499,-0.4879 0.177,-0.0976 0.356,-0.0879 0.539,0.0292 0.196,0.1173 0.316,0.3644 0.362,0.7415 0.046,0.3775 0,0.7806 -0.137,1.2101 -0.137,0.4293 -0.382,0.8326 -0.734,1.2096 -0.353,0.3778 -0.83,0.6246 -1.43,0.7417 -0.026,-0.1819 -0.02,-0.4226 0.02,-0.7219 z m 7.334,1.1416 c -0.15,-0.1624 -0.333,-0.2763 -0.548,-0.3417 -0.215,-0.0648 -0.421,-0.0713 -0.617,-0.0193 -0.196,0.052 -0.32,0.1887 -0.372,0.4097 -0.105,0.4165 -0.271,0.8425 -0.5,1.278 -0.228,0.4362 -0.509,0.8492 -0.842,1.2393 -0.333,0.3902 -0.708,0.7353 -1.126,1.0344 -0.418,0.2993 -0.855,0.5139 -1.312,0.6437 -0.457,0.1436 -0.836,0.1597 -1.136,0.049 -0.301,-0.1104 -0.539,-0.2991 -0.715,-0.5657 -0.176,-0.2669 -0.303,-0.5887 -0.382,-0.9663 -0.078,-0.377 -0.124,-0.7672 -0.137,-1.1707 0.744,0.0522 1.407,-0.081 1.988,-0.4001 0.581,-0.3186 1.074,-0.7417 1.479,-1.2686 0.404,-0.5265 0.711,-1.1185 0.92,-1.7755 0.209,-0.6571 0.326,-1.3107 0.353,-1.9613 0.012,-0.6115 -0.079,-1.1287 -0.275,-1.5515 -0.195,-0.4226 -0.46,-0.7514 -0.793,-0.9853 -0.333,-0.2345 -0.715,-0.3709 -1.146,-0.41 -0.43,-0.0391 -0.868,0.0198 -1.312,0.1755 -0.535,0.1825 -0.989,0.4783 -1.361,0.8881 -0.372,0.4099 -0.682,0.885 -0.93,1.4245 -0.248,0.5402 -0.444,1.122 -0.588,1.7466 -0.144,0.6244 -0.248,1.2393 -0.313,1.8441 -0.063,0.587 -0.098,1.1488 -0.106,1.6865 -0.049,0.1072 -0.102,0.2149 -0.159,0.3233 -0.228,0.4362 -0.509,0.8492 -0.842,1.2393 -0.332,0.3902 -0.708,0.7353 -1.126,1.0344 -0.418,0.2993 -0.855,0.5139 -1.312,0.6437 -0.457,0.1436 -0.836,0.1597 -1.136,0.049 -0.3,-0.1104 -0.539,-0.2991 -0.715,-0.5657 -0.176,-0.2669 -0.303,-0.5887 -0.382,-0.9663 -0.078,-0.377 -0.124,-0.7672 -0.137,-1.1707 0.744,0.0522 1.407,-0.081 1.988,-0.4001 0.581,-0.3186 1.074,-0.7417 1.479,-1.2686 0.404,-0.5265 0.711,-1.1185 0.92,-1.7755 0.209,-0.6571 0.327,-1.3107 0.353,-1.9613 0.013,-0.6115 -0.079,-1.1287 -0.274,-1.5515 -0.196,-0.4226 -0.461,-0.7514 -0.794,-0.9853 -0.333,-0.2345 -0.715,-0.3709 -1.145,-0.41 -0.431,-0.0391 -0.869,0.0198 -1.313,0.1755 -0.535,0.1825 -0.989,0.4783 -1.361,0.8881 -0.372,0.4099 -0.682,0.885 -0.93,1.4245 -0.248,0.5402 -0.444,1.122 -0.587,1.7466 -0.144,0.6244 -0.249,1.2393 -0.314,1.8441 -0.037,0.3412 -0.062,0.6719 -0.08,0.9967 -0.126,0.107 -0.249,0.2147 -0.38,0.3204 -0.45,0.3644 -0.924,0.6927 -1.42,0.9856 -0.497,0.2929 -1.012,0.5335 -1.547,0.7221 -0.536,0.1887 -1.084,0.3026 -1.645,0.3414 l 1.214,-12.9575 c 0.078,-0.2734 0.039,-0.5137 -0.117,-0.7219 -0.157,-0.2083 -0.36,-0.3513 -0.608,-0.4293 -0.248,-0.0783 -0.512,-0.0716 -0.793,0.0193 -0.281,0.0913 -0.512,0.2995 -0.695,0.6243 -0.092,0.4947 -0.186,1.1711 -0.284,2.0296 -0.098,0.8586 -0.196,1.7954 -0.294,2.8102 -0.098,1.0148 -0.196,2.062 -0.294,3.1417 -0.098,1.0801 -0.183,2.0882 -0.254,3.0248 -0.004,0.0416 -0.006,0.0792 -0.01,0.1203 -0.114,0.0965 -0.225,0.1938 -0.343,0.2894 -0.45,0.3644 -0.924,0.6927 -1.42,0.9856 -0.496,0.2929 -1.012,0.5335 -1.547,0.7221 -0.536,0.1887 -1.084,0.3026 -1.645,0.3414 l 1.214,-12.9575 c 0.079,-0.2734 0.039,-0.5137 -0.117,-0.7219 -0.157,-0.2083 -0.36,-0.3513 -0.608,-0.4293 -0.248,-0.0783 -0.512,-0.0716 -0.793,0.0193 -0.281,0.0913 -0.512,0.2995 -0.695,0.6243 -0.091,0.4947 -0.186,1.1711 -0.284,2.0296 -0.098,0.8586 -0.196,1.7954 -0.294,2.8102 -0.098,1.0148 -0.195,2.062 -0.294,3.1417 -0.097,1.0801 -0.183,2.0882 -0.254,3.0248 -0.002,0.0188 -0.003,0.0359 -0.004,0.0547 -0.206,0.0948 -0.429,0.178 -0.672,0.2478 -0.248,0.0718 -0.529,0.1141 -0.842,0.127 0.052,-0.2344 0.094,-0.4946 0.127,-0.7808 0.033,-0.286 0.059,-0.5853 0.079,-0.8977 0.019,-0.312 0.026,-0.6244 0.019,-0.9366 -0.007,-0.3124 -0.023,-0.5984 -0.049,-0.8588 -0.065,-0.559 -0.186,-1.0893 -0.362,-1.5904 -0.176,-0.5006 -0.414,-0.92 -0.715,-1.2586 -0.3,-0.3382 -0.675,-0.566 -1.126,-0.6828 -0.45,-0.1171 -0.976,-0.0783 -1.576,0.1168 -0.889,-0.1168 -1.688,-0.0354 -2.4,0.2441 -0.711,0.28 -1.328,0.6863 -1.851,1.2196 -0.522,0.5337 -0.949,1.1611 -1.282,1.8832 -0.333,0.7219 -0.555,1.4637 -0.666,2.2244 -0.047,0.3226 -0.07,0.6437 -0.077,0.9641 -0.202,0.4124 -0.424,0.7729 -0.668,1.0754 -0.345,0.4293 -0.704,0.7806 -1.077,1.0537 -0.372,0.2733 -0.741,0.4815 -1.106,0.6246 -0.366,0.1433 -0.692,0.2409 -0.979,0.2926 -0.34,0.0651 -0.666,0.0718 -0.98,0.0196 -0.313,-0.0518 -0.601,-0.2015 -0.861,-0.4489 -0.209,-0.1819 -0.369,-0.4748 -0.48,-0.8781 -0.111,-0.4033 -0.176,-0.8615 -0.196,-1.3757 -0.02,-0.514 0,-1.0507 0.059,-1.61 0.059,-0.5592 0.159,-1.0895 0.303,-1.5904 0.144,-0.5008 0.326,-0.9497 0.549,-1.3468 0.221,-0.3963 0.482,-0.6795 0.783,-0.8486 0.169,0.0262 0.274,0.1267 0.313,0.3023 0.04,0.1757 0.049,0.3839 0.03,0.6246 -0.02,0.2409 -0.049,0.4879 -0.088,0.7414 -0.04,0.2538 -0.059,0.4655 -0.059,0.6343 0.065,0.3513 0.192,0.6246 0.382,0.8197 0.189,0.1951 0.401,0.3092 0.636,0.3414 0.235,0.0327 0.467,-0.0225 0.696,-0.1658 0.228,-0.1429 0.414,-0.3707 0.558,-0.6831 0.013,0.0131 0.032,0.0196 0.058,0.0196 l 0.275,-2.4782 c 0.078,-0.3384 0.026,-0.6375 -0.157,-0.8977 -0.183,-0.2602 -0.424,-0.41 -0.725,-0.4488 -0.378,-0.5464 -0.891,-0.8358 -1.537,-0.8685 -0.646,-0.0325 -1.309,0.179 -1.988,0.6343 -0.418,0.2995 -0.787,0.7122 -1.106,1.239 -0.321,0.5271 -0.582,1.1124 -0.784,1.7563 -0.203,0.6439 -0.346,1.324 -0.431,2.0395 -0.085,0.7155 -0.101,1.4116 -0.049,2.0877 0.052,0.6769 0.173,1.3144 0.363,1.9125 0.189,0.5987 0.453,1.0995 0.793,1.5025 0.287,0.3513 0.613,0.6086 0.979,0.7712 0.365,0.1627 0.747,0.2632 1.146,0.3023 0.398,0.0389 0.793,0.0225 1.185,-0.0488 0.391,-0.0713 0.764,-0.172 1.116,-0.3025 0.457,-0.1688 0.927,-0.3837 1.41,-0.6439 0.483,-0.26 0.947,-0.5724 1.391,-0.9368 0.233,-0.1917 0.458,-0.4006 0.675,-0.6247 0.099,0.2446 0.21,0.4813 0.343,0.7029 0.353,0.5852 0.829,1.0603 1.43,1.4245 0.6,0.3642 1.338,0.5395 2.213,0.5268 0.94,-0.0131 1.808,-0.2503 2.605,-0.7122 0.796,-0.4615 1.449,-1.1418 1.958,-2.0393 0.763,0 1.513,-0.1252 2.251,-0.374 -0.006,0.0787 -0.012,0.1616 -0.018,0.2376 -0.052,0.6895 -0.079,1.1577 -0.079,1.405 -0.012,0.4293 -0.042,0.9593 -0.088,1.5901 -0.045,0.6311 -0.075,1.2946 -0.088,1.9905 -0.013,0.6959 0.013,1.3985 0.079,2.1078 0.065,0.7088 0.202,1.353 0.411,1.9321 0.209,0.5785 0.506,1.0697 0.891,1.4732 0.385,0.4031 0.891,0.644 1.518,0.722 0.666,0.0908 1.24,-0.0263 1.723,-0.3513 0.483,-0.3254 0.875,-0.7707 1.176,-1.3367 0.3,-0.5662 0.512,-1.2198 0.636,-1.9612 0.124,-0.7415 0.16,-1.4864 0.108,-2.2346 -0.053,-0.7482 -0.19,-1.4537 -0.412,-2.117 -0.222,-0.6637 -0.529,-1.2101 -0.92,-1.6396 0.235,-0.0646 0.516,-0.1882 0.842,-0.3706 0.326,-0.182 0.662,-0.387 1.009,-0.6148 0.085,-0.0559 0.169,-0.1148 0.253,-0.1723 -0.032,0.461 -0.048,0.7898 -0.048,0.9824 -0.013,0.4293 -0.042,0.9593 -0.088,1.5901 -0.045,0.6311 -0.075,1.2946 -0.088,1.9905 -0.013,0.6959 0.013,1.3985 0.078,2.1078 0.066,0.7088 0.203,1.353 0.412,1.9321 0.208,0.5785 0.505,1.0697 0.891,1.4732 0.385,0.4031 0.891,0.644 1.518,0.722 0.665,0.0908 1.24,-0.0263 1.723,-0.3513 0.483,-0.3254 0.875,-0.7707 1.175,-1.3367 0.3,-0.5662 0.512,-1.2198 0.637,-1.9612 0.124,-0.7415 0.159,-1.4864 0.107,-2.2346 -0.052,-0.7482 -0.189,-1.4537 -0.411,-2.117 -0.222,-0.6637 -0.529,-1.2101 -0.921,-1.6396 0.236,-0.0646 0.516,-0.1882 0.843,-0.3706 0.326,-0.182 0.662,-0.387 1.009,-0.6148 0.179,-0.1183 0.358,-0.2403 0.536,-0.3659 0.068,0.6363 0.212,1.1943 0.442,1.6637 0.281,0.5726 0.663,1.0148 1.146,1.3272 0.483,0.312 1.051,0.4845 1.704,0.517 0.653,0.0321 1.364,-0.0879 2.135,-0.3612 0.574,-0.208 1.074,-0.4682 1.498,-0.7804 0.424,-0.3124 0.806,-0.6929 1.146,-1.1415 0.02,-0.026 0.038,-0.0543 0.057,-0.0805 0.061,0.1822 0.128,0.3572 0.207,0.5194 0.281,0.5726 0.663,1.0148 1.146,1.3272 0.483,0.312 1.051,0.4845 1.704,0.517 0.653,0.0321 1.364,-0.0879 2.135,-0.3612 0.574,-0.208 1.074,-0.4682 1.498,-0.7804 0.424,-0.3124 0.806,-0.6929 1.146,-1.1415 0.339,-0.4491 0.649,-0.9663 0.93,-1.5516 0.281,-0.5855 0.565,-1.2551 0.852,-2.01 0.052,-0.2079 0.003,-0.3934 -0.147,-0.556 z"
         fill="#0d0c23"
         id="path17" />
      <path
         fill-rule="evenodd"
         clip-rule="evenodd"
         d="m 189.451,9.22969 c -2.08,0 -3.766,1.68621 -3.766,3.76621 0,2.08 1.686,3.7662 3.766,3.7662 2.08,0 3.766,-1.6862 3.766,-3.7662 0,-2.08 -1.686,-3.76621 -3.766,-3.76621 z M 185,12.9959 c 0,-2.4582 1.993,-4.45098 4.451,-4.45098 2.458,0 4.451,1.99278 4.451,4.45098 0,2.4582 -1.993,4.451 -4.451,4.451 -2.458,0 -4.451,-1.9928 -4.451,-4.451 z m 3.082,-1.712 c 0,-0.1891 0.153,-0.3424 0.342,-0.3424 h 1.37 c 0.363,0 0.711,0.1443 0.968,0.4011 0.257,0.2568 0.401,0.6052 0.401,0.9684 0,0.3632 -0.144,0.7116 -0.401,0.9684 -0.102,0.1024 -0.219,0.1869 -0.346,0.2515 l 0.685,0.9816 c 0.108,0.155 0.07,0.3685 -0.085,0.4767 -0.155,0.1082 -0.368,0.0702 -0.476,-0.0849 l -0.854,-1.2238 h -0.92 v 1.0272 c 0,0.1891 -0.153,0.3424 -0.342,0.3424 -0.189,0 -0.342,-0.1533 -0.342,-0.3424 z m 1.782,1.7083 c -0.017,-10e-5 -0.033,10e-4 -0.05,0.0033 -0.007,2e-4 -0.014,3e-4 -0.02,3e-4 h -1.028 v -1.3696 h 1.028 c 0.181,0 0.355,0.0722 0.484,0.2006 0.128,0.1284 0.2,0.3026 0.2,0.4842 0,0.1816 -0.072,0.3558 -0.2,0.4842 -0.112,0.1118 -0.259,0.181 -0.414,0.197 z"
         fill="#0d0c23"
         id="path18" />
    </g>
  </g>
  <defs
     id="defs20">
    <clipPath
       id="clip0_2397_300">
      <rect
         width="195"
         height="40"
         fill="#ffffff"
         id="rect19"
         x="0"
         y="0" />
    </clipPath>
    <clipPath
       id="clip1_2397_300">
      <rect
         width="9.8228598"
         height="9.8228598"
         fill="#ffffff"
         transform="translate(185,8)"
         id="rect20"
         x="0"
         y="0" />
    </clipPath>
  </defs>
</svg>
