<?xml version="1.0" encoding="UTF-8" standalone="no"?>
<svg
   fill="none"
   viewBox="0 0 180 24"
   version="1.1"
   id="svg8"
   sodipodi:docname="paypal-logo.svg"
   width="180"
   height="24"
   inkscape:version="1.3.2 (091e20e, 2023-11-25, custom)"
   inkscape:export-filename="paypal-logo.png"
   inkscape:export-xdpi="96"
   inkscape:export-ydpi="96"
   xmlns:inkscape="http://www.inkscape.org/namespaces/inkscape"
   xmlns:sodipodi="http://sodipodi.sourceforge.net/DTD/sodipodi-0.dtd"
   xmlns="http://www.w3.org/2000/svg"
   xmlns:svg="http://www.w3.org/2000/svg">
  <sodipodi:namedview
     id="namedview8"
     pagecolor="#ffffff"
     bordercolor="#000000"
     borderopacity="0.25"
     inkscape:showpageshadow="2"
     inkscape:pageopacity="0.0"
     inkscape:pagecheckerboard="0"
     inkscape:deskcolor="#d1d1d1"
     inkscape:zoom="2.9470588"
     inkscape:cx="88.902196"
     inkscape:cy="35.11976"
     inkscape:window-width="1366"
     inkscape:window-height="697"
     inkscape:window-x="-8"
     inkscape:window-y="-8"
     inkscape:window-maximized="1"
     inkscape:current-layer="svg8" />
  <rect
     style="fill:#e6e6e6;stroke-width:15.8947;stroke-linecap:round;stroke-linejoin:round"
     id="rect35"
     width="180"
     height="24"
     x="0"
     y="0"
     rx="5.916029"
     inkscape:label="bg" />
  <g
     clip-path="url(#a)"
     id="g7"
     transform="matrix(0.46800333,0,0,0.46800333,50.219712,0.76558006)"
     inkscape:label="paypal">
    <path
       id="path33"
       style="fill:#0070e0"
       d="m 162.66956,10.800633 a 0.69,0.69 0 0 0 -0.68859,0.588438 l -3.96048,25.077446 a 0.637,0.637 0 0 0 0.36308,0.684423 c 0.084,0.04 0.17827,0.05843 0.27127,0.05843 h 4.68663 a 0.688,0.688 0 0 0 0.68859,-0.588438 l 3.96465,-25.077446 a 0.637,0.637 0 0 0 -0.14606,-0.517491 0.645,0.645 0 0 0 -0.48828,-0.225359 z m -34.52583,-0.01252 c -0.23013,-0.0014 -0.4596,0.0044 -0.68859,0.02087 h -8.25482 c -1.0031,0.259613 -0.71248,1.493755 -0.95569,2.286976 l -3.69338,23.378907 c 0.11886,1.144877 1.47009,0.625751 2.25776,0.74285 h 3.06739 c 1.00299,-0.260198 0.7125,-1.497621 0.95569,-2.291149 l 0.89726,-5.663188 c 0.41706,-0.945177 1.58994,-0.470704 2.41218,-0.588437 l 2.52902,-0.0042 c 6.23886,0.321346 11.7771,-6.621566 9.61115,-12.515769 -1.18749,-3.340482 -4.686,-5.345864 -8.13797,-5.366882 z m -1.78617,5.592241 c 0.86878,-0.0013 1.73055,0.04943 2.56658,0.304652 1.32408,0.429598 1.94406,1.918526 1.6735,3.200932 -0.24212,2.271069 -2.67576,3.370094 -4.73254,3.188412 h -3.16754 c 0.35133,-2.226661 0.70452,-4.450642 1.05585,-6.677303 0.86161,0.04088 1.73535,-0.01542 2.60415,-0.01669 z m 19.50189,1.740272 c -3.0595,0.10392 -6.14419,1.689729 -7.92095,4.160794 -2.58591,3.464255 -3.20454,8.756157 -0.46324,12.307104 2.67749,3.396812 8.02569,3.971927 11.49331,1.46066 0.26086,-0.09181 0.37857,1.666848 1.60673,1.160182 h 3.63913 c 1.00325,-0.258609 0.71239,-1.49773 0.95569,-2.29115 0.81205,-5.194289 1.65547,-10.382766 2.44973,-15.578982 -0.006,-0.329197 -0.27848,-0.644254 -0.64686,-0.634344 h -4.44875 c -1.17914,-0.10237 -0.33633,2.477882 -1.46901,0.959862 -1.53395,-1.135374 -3.36007,-1.606479 -5.19578,-1.544126 z m 0.58009,5.429482 c 1.37023,0.0024 2.69005,0.575418 3.48472,1.894684 0.49369,0.815084 0.66898,1.825051 0.50497,2.754388 -0.19981,5.328164 -9.16447,5.710635 -9.15208,0.350558 -0.26204,-2.926181 2.54652,-5.004221 5.16239,-4.99963 z"
       inkscape:label="pal" />
    <path
       id="path16"
       style="fill:#003087"
       d="m 55.08152,10.80898 c -1.13538,0.448386 -0.743842,2.012419 -1.076352,3.020375 -1.188124,7.545721 -2.376249,15.091441 -3.564373,22.637162 0.380879,1.273055 2.060065,0.554151 3.100468,0.74285 0.987776,-0.172748 2.541514,0.501176 2.931766,-0.731723 0.380565,-2.406147 0.761129,-4.812294 1.141693,-7.218441 0.626902,-1.043877 2.106286,-0.417586 3.154722,-0.588438 5.350599,0.461162 11.097988,-2.807516 11.773223,-8.559467 0.890436,-4.588137 -3.046032,-9.012351 -7.589829,-9.252418 -3.286271,-0.10782 -6.582304,-0.02284 -9.871318,-0.0499 z m 4.557259,5.588068 c 2.102602,0.172327 4.618784,-0.573732 6.288666,1.061408 1.662325,2.162924 -0.26291,5.521391 -2.910807,5.554291 -1.472433,0.11767 -2.953196,0.03851 -4.429534,0.0616 0.350558,-2.225768 0.701117,-4.451535 1.051675,-6.677303 z m 22.439912,1.706886 c -4.946213,-0.03507 -9.421509,3.833728 -10.262559,8.681986 -0.898291,3.816868 0.594396,8.433282 4.413518,10.019385 2.84441,1.351925 6.360017,0.95723 8.874693,-0.927226 -0.528131,1.488145 1.28563,1.40533 2.283327,1.331288 1.051457,-0.07843 2.161524,0.176088 3.166714,-0.165165 0.620672,-1.616368 0.617231,-3.447023 0.979811,-5.152006 0.629239,-4.240669 1.415775,-8.473728 1.946251,-12.719174 -0.638201,-0.878047 -1.977674,-0.302437 -2.938968,-0.468131 -0.983626,0.154964 -2.645957,-0.50732 -2.865647,0.870856 -0.227526,1.436524 -2.447991,-1.771841 -3.770437,-1.282157 -0.599585,-0.130472 -1.213368,-0.1922 -1.826703,-0.189656 z m 0.158585,5.425308 c 2.448511,-0.160045 4.605556,2.269319 4.077375,4.669939 -0.229747,5.677343 -9.653191,5.512525 -9.136332,-0.01937 0.122049,-2.565863 2.481099,-4.750629 5.058957,-4.650571 z m 13.3713,-4.824351 c -1.112713,0.479164 0.09086,1.879493 0.170911,2.759669 1.40508,4.359353 2.810161,8.718706 4.215242,13.078059 -1.476757,2.478805 -3.13216,4.877426 -4.496017,7.406906 0.468453,0.979181 1.922895,0.337995 2.844081,0.522391 1.105232,-0.05447 2.239517,0.120369 3.322477,-0.109921 1.50072,-1.995374 2.63689,-4.280371 3.99264,-6.390927 3.31778,-5.489691 6.63557,-10.979383 9.95336,-16.469074 0.13166,-1.323835 -1.76748,-0.605985 -2.62253,-0.788757 -1.1529,0.05507 -2.33465,-0.12085 -3.46573,0.108911 -1.44155,1.918402 -2.50275,4.136639 -3.79263,6.174598 -0.63068,1.064696 -1.26135,2.129392 -1.89203,3.194088 -0.90839,-2.997831 -1.81678,-5.995661 -2.72517,-8.993492 -0.71903,-0.898435 -2.094037,-0.334281 -3.129685,-0.492451 -0.79164,0 -1.583279,0 -2.374919,0 z"
       inkscape:label="pay" />
    <g
       id="g8"
       inkscape:label="double-p">
      <path
         fill="#001c64"
         d="M 37.146,22.26 C 36.14,27.995 31.461,32.33 25.321,32.33 h -3.898 c -0.795,0 -1.596,0.736 -1.723,1.55 l -1.707,10.835 c -0.099,0.617 -0.388,0.822 -1.013,0.822 h -6.27 c -0.634,0 -0.784,-0.212 -0.689,-0.837 l 0.72,-7.493 -7.526,-0.389 c -0.633,0 -0.862,-0.345 -0.772,-0.977 L 7.578,3.281 C 7.677,2.664 8.061,2.399 8.684,2.399 h 13.023 c 6.269,0 10.235,4.22 10.72,9.692 3.73,2.52 5.474,5.873 4.72,10.168 z"
         id="path5" />
      <path
         fill="#0070e0"
         d="M 12.649,25.075 10.742,37.208 9.536,44.82 a 1.034,1.034 0 0 0 1.016,1.19 h 6.622 a 1.27,1.27 0 0 0 1.253,-1.072 l 1.743,-11.06 a 1.27,1.27 0 0 1 1.253,-1.071 h 3.898 A 12.46,12.46 0 0 0 37.617,22.26 c 0.675,-4.307 -1.492,-8.228 -5.201,-10.165 a 9.96,9.96 0 0 1 -0.12,1.37 12.461,12.461 0 0 1 -12.295,10.54 h -6.1 a 1.268,1.268 0 0 0 -1.252,1.07 z"
         id="path6" />
      <path
         fill="#003087"
         d="M 10.741,37.208 H 3.03 A 1.035,1.035 0 0 1 2.012,36.016 L 7.208,3.072 A 1.268,1.268 0 0 1 8.46,2 H 21.7 c 6.269,0 10.827,4.562 10.72,10.089 A 11.567,11.567 0 0 0 27.021,10.802 H 15.983 a 1.27,1.27 0 0 0 -1.254,1.071 l -2.08,13.202 z"
         id="path7" />
    </g>
  </g>
  <defs
     id="defs8">
    <clipPath
       id="a">
      <path
         fill="#ffffff"
         d="M 0,0 H 166 V 44.01 H 0 Z"
         transform="translate(2,2)"
         id="path8" />
    </clipPath>
  </defs>
</svg>
